<svg xmlns="http://www.w3.org/2000/svg" version="1.1" xmlns:xlink="http://www.w3.org/1999/xlink" xmlns:svgjs="http://svgjs.dev/svgjs" width="1440" height="560" preserveAspectRatio="none" viewBox="0 0 1440 560"><g mask="url(&quot;#SvgjsMask1109&quot;)" fill="none"><rect width="228" height="228" clip-path="url(&quot;#SvgjsClipPath1110&quot;)" x="519.21" y="-48.42" fill="url(&quot;#SvgjsPattern1111&quot;)" transform="rotate(63.07, 633.21, 65.58)"></rect><rect width="103.80000000000001" height="103.80000000000001" clip-path="url(&quot;#SvgjsClipPath1112&quot;)" x="1074.18" y="95.45" fill="url(&quot;#SvgjsPattern1113&quot;)" transform="rotate(192.97, 1126.08, 147.35)"></rect><circle r="62.42271667004551" cx="944.99" cy="545.03" fill="rgba(44, 182, 125, 1)"></circle><rect width="279.2" height="279.2" clip-path="url(&quot;#SvgjsClipPath1114&quot;)" x="1053.16" y="86.83" fill="url(&quot;#SvgjsPattern1115&quot;)" transform="rotate(312.36, 1192.76, 226.43)"></rect><path d="M960.9799999999999 329.69 L1096.54 265.89L1120.7873583131138 389.81735831311374z" stroke="rgba(44, 182, 125, 1)" stroke-width="1" stroke-dasharray="3, 3"></path><path d="M647.87 116.52L660.26 119.76 659.82 132.56 672.21 135.8 671.77 148.6 684.16 151.83 683.72 164.63M641.46 121.3L653.85 124.54 653.41 137.34 665.8 140.58 665.36 153.38 677.75 156.61 677.31 169.41" stroke="rgba(44, 182, 125, 1)" stroke-width="1" stroke-dasharray="4, 4"></path><path d="M645.21 30.53a5.6 5.6 0 1 0-1.35-11.12 5.6 5.6 0 1 0 1.35 11.12zM643.29 14.64a5.6 5.6 0 1 0-1.34-11.12 5.6 5.6 0 1 0 1.34 11.12zM641.37-1.24a5.6 5.6 0 1 0-1.34-11.12 5.6 5.6 0 1 0 1.34 11.12zM639.45-17.13a5.6 5.6 0 1 0-1.34-11.12 5.6 5.6 0 1 0 1.34 11.12zM664.93 60.38a5.6 5.6 0 1 0-1.34-11.12 5.6 5.6 0 1 0 1.34 11.12zM663.01 44.49a5.6 5.6 0 1 0-1.34-11.12 5.6 5.6 0 1 0 1.34 11.12zM661.09 28.61a5.6 5.6 0 1 0-1.34-11.12 5.6 5.6 0 1 0 1.34 11.12zM659.17 12.72a5.6 5.6 0 1 0-1.34-11.12 5.6 5.6 0 1 0 1.34 11.12zM684.65 90.23a5.6 5.6 0 1 0-1.34-11.12 5.6 5.6 0 1 0 1.34 11.12zM682.74 74.34a5.6 5.6 0 1 0-1.35-11.12 5.6 5.6 0 1 0 1.35 11.12zM680.82 58.46a5.6 5.6 0 1 0-1.35-11.12 5.6 5.6 0 1 0 1.35 11.12zM678.9 42.57a5.6 5.6 0 1 0-1.35-11.12 5.6 5.6 0 1 0 1.35 11.12z" stroke="rgba(44, 182, 125, 1)" stroke-width="2.71" stroke-dasharray="2, 2"></path><path d="M1092.71 179.41a5.6 5.6 0 1 0-5.85 9.55 5.6 5.6 0 1 0 5.85-9.55zM1084.35 193.06a5.6 5.6 0 1 0-5.85 9.55 5.6 5.6 0 1 0 5.85-9.55zM1076 206.7a5.6 5.6 0 1 0-5.85 9.55 5.6 5.6 0 1 0 5.85-9.55zM1067.64 220.35a5.6 5.6 0 1 0-5.85 9.55 5.6 5.6 0 1 0 5.85-9.55zM1095.77 143.77a5.6 5.6 0 1 0-5.85 9.55 5.6 5.6 0 1 0 5.85-9.55zM1087.42 157.41a5.6 5.6 0 1 0-5.85 9.55 5.6 5.6 0 1 0 5.85-9.55zM1079.06 171.06a5.6 5.6 0 1 0-5.85 9.55 5.6 5.6 0 1 0 5.85-9.55zM1070.71 184.7a5.6 5.6 0 1 0-5.85 9.55 5.6 5.6 0 1 0 5.85-9.55z" stroke="rgba(44, 182, 125, 1)" stroke-width="1"></path><circle r="73.1211402814804" cx="894.23" cy="129.37" fill="rgba(44, 182, 125, 1)"></circle><rect width="60" height="60" clip-path="url(&quot;#SvgjsClipPath1116&quot;)" x="903.83" y="245.92" fill="url(&quot;#SvgjsPattern1117&quot;)" transform="rotate(254.28, 933.83, 275.92)"></rect><path d="M1242.17 508.64a5.6 5.6 0 1 0-5.62 9.68 5.6 5.6 0 1 0 5.62-9.68zM1234.14 522.47a5.6 5.6 0 1 0-5.62 9.69 5.6 5.6 0 1 0 5.62-9.69zM1226.1 536.31a5.6 5.6 0 1 0-5.62 9.69 5.6 5.6 0 1 0 5.62-9.69zM1218.07 550.15a5.6 5.6 0 1 0-5.62 9.68 5.6 5.6 0 1 0 5.62-9.68z" stroke="rgba(44, 182, 125, 1)" stroke-width="1.88" stroke-dasharray="2, 2"></path><path d="M876.21 566.6 L831.82 549.66L831.7541558926631 580.390844107337z" fill="rgba(44, 182, 125, 1)"></path></g><defs><mask id="SvgjsMask1109"><rect width="1440" height="560" fill="#ffffff"></rect></mask><pattern x="0" y="0" width="228" height="6" patternUnits="userSpaceOnUse" id="SvgjsPattern1111"><rect width="228" height="3" x="0" y="0" fill="rgba(44, 182, 125, 1)"></rect><rect width="228" height="3" x="0" y="3" fill="rgba(0, 0, 0, 0)"></rect></pattern><clipPath id="SvgjsClipPath1110"><circle r="57" cx="633.21" cy="65.58"></circle></clipPath><pattern x="0" y="0" width="10.38" height="10.38" patternUnits="userSpaceOnUse" id="SvgjsPattern1113"><path d="M0 10.38L5.19 0L10.38 10.38" stroke="rgba(44, 182, 125, 1)" fill="none"></path></pattern><clipPath id="SvgjsClipPath1112"><circle r="25.950000000000003" cx="1126.08" cy="147.35"></circle></clipPath><pattern x="0" y="0" width="279.2" height="6.98" patternUnits="userSpaceOnUse" id="SvgjsPattern1115"><rect width="279.2" height="3.49" x="0" y="0" fill="rgba(44, 182, 125, 1)"></rect><rect width="279.2" height="3.49" x="0" y="3.49" fill="rgba(0, 0, 0, 0)"></rect></pattern><clipPath id="SvgjsClipPath1114"><circle r="69.8" cx="1192.76" cy="226.43"></circle></clipPath><pattern x="0" y="0" width="6" height="6" patternUnits="userSpaceOnUse" id="SvgjsPattern1117"><path d="M3 1L3 5M1 3L5 3" stroke="rgba(44, 182, 125, 1)" fill="none" stroke-width="1"></path></pattern><clipPath id="SvgjsClipPath1116"><circle r="15" cx="933.83" cy="275.92"></circle></clipPath></defs></svg>