<svg xmlns="http://www.w3.org/2000/svg" version="1.1" xmlns:xlink="http://www.w3.org/1999/xlink" xmlns:svgjs="http://svgjs.dev/svgjs" width="1440" height="560" preserveAspectRatio="none" viewBox="0 0 1440 560"><g mask="url(&quot;#SvgjsMask1245&quot;)" fill="none"><path d="M706.48 297.48L719.26 298.37 721.19 311.03 733.97 311.92 735.9 324.58 748.68 325.47 750.61 338.13M701.06 303.36L713.84 304.25 715.77 316.91 728.55 317.8 730.48 330.46 743.26 331.35 745.19 344.01" stroke="rgba(127, 90, 240, 1)" stroke-width="1"></path><rect width="144.24" height="144.24" clip-path="url(&quot;#SvgjsClipPath1246&quot;)" x="565.74" y="407.32" fill="url(&quot;#SvgjsPattern1247&quot;)" transform="rotate(207.96, 637.86, 479.44)"></rect><path d="M1465.1000000000001 144.39000000000001 L1504.3200000000002 186.95000000000002L1521.3961566975054 128.98384330249468z" fill="rgba(127, 90, 240, 1)"></path><rect width="327.84" height="327.84" clip-path="url(&quot;#SvgjsClipPath1248&quot;)" x="1198.23" y="178.21" fill="url(&quot;#SvgjsPattern1249&quot;)" transform="rotate(97.33, 1362.15, 342.13)"></rect><rect width="175.24" height="175.24" clip-path="url(&quot;#SvgjsClipPath1250&quot;)" x="825.01" y="1.06" fill="url(&quot;#SvgjsPattern1251&quot;)" transform="rotate(279.83, 912.63, 88.68)"></rect><circle r="46.666666666666664" cx="588.35" cy="153.91" stroke="rgba(127, 90, 240, 1)" stroke-width="1" stroke-dasharray="4, 4"></circle><circle r="54.74523466225315" cx="382.76" cy="14.27" stroke="rgba(127, 90, 240, 1)" stroke-width="1.32" stroke-dasharray="3, 3"></circle><path d="M747.68 237.94L759.93 234.2 766.26 245.33 778.51 241.59 784.85 252.72 797.09 248.98 803.43 260.11M744.72 245.37L756.97 241.63 763.31 252.76 775.55 249.03 781.89 260.16 794.14 256.42 800.47 267.55M741.76 252.81L754.01 249.07 760.35 260.2 772.6 256.46 778.93 267.59 791.18 263.85 797.52 274.98" stroke="rgba(127, 90, 240, 1)" stroke-width="1" stroke-dasharray="3, 3"></path><circle r="86.71986259470833" cx="1305.4" cy="232" fill="rgba(127, 90, 240, 1)"></circle><path d="M1035.06 332.57 L1021.32 248.56L1067.0476654504748 251.70733454952517z" fill="rgba(127, 90, 240, 1)"></path><rect width="92.96" height="92.96" clip-path="url(&quot;#SvgjsClipPath1252&quot;)" x="851.67" y="171.36" fill="url(&quot;#SvgjsPattern1253&quot;)" transform="rotate(275.01, 898.15, 217.84)"></rect><circle r="46.666666666666664" cx="767.78" cy="69.4" fill="rgba(127, 90, 240, 1)"></circle></g><defs><mask id="SvgjsMask1245"><rect width="1440" height="560" fill="#ffffff"></rect></mask><pattern x="0" y="0" width="12.02" height="12.02" patternUnits="userSpaceOnUse" id="SvgjsPattern1247"><path d="M6.01 1L6.01 11.02M1 6.01L11.02 6.01" stroke="rgba(127, 90, 240, 1)" fill="none" stroke-width="3.72"></path></pattern><clipPath id="SvgjsClipPath1246"><circle r="36.06" cx="637.86" cy="479.44"></circle></clipPath><pattern x="0" y="0" width="13.66" height="13.66" patternUnits="userSpaceOnUse" id="SvgjsPattern1249"><path d="M6.83 1L6.83 12.66M1 6.83L12.66 6.83" stroke="rgba(127, 90, 240, 1)" fill="none" stroke-width="4.06"></path></pattern><clipPath id="SvgjsClipPath1248"><circle r="81.96" cx="1362.15" cy="342.13"></circle></clipPath><pattern x="0" y="0" width="175.24" height="6.74" patternUnits="userSpaceOnUse" id="SvgjsPattern1251"><rect width="175.24" height="3.37" x="0" y="0" fill="rgba(127, 90, 240, 1)"></rect><rect width="175.24" height="3.37" x="0" y="3.37" fill="rgba(0, 0, 0, 0)"></rect></pattern><clipPath id="SvgjsClipPath1250"><circle r="43.81" cx="912.63" cy="88.68"></circle></clipPath><pattern x="0" y="0" width="6.64" height="6.64" patternUnits="userSpaceOnUse" id="SvgjsPattern1253"><path d="M0 6.64L3.32 0L6.64 6.64" stroke="rgba(127, 90, 240, 1)" fill="none"></path></pattern><clipPath id="SvgjsClipPath1252"><circle r="23.24" cx="898.15" cy="217.84"></circle></clipPath></defs></svg>