<svg xmlns="http://www.w3.org/2000/svg" version="1.1" xmlns:xlink="http://www.w3.org/1999/xlink" xmlns:svgjs="http://svgjs.com/svgjs" width="1000" height="500" preserveAspectRatio="none" viewBox="0 0 1000 500"><g mask="url(&quot;#SvgjsMask6115&quot;)" fill="none"><path d="M410.25 322.46 L480.82 353.1L481.2607972437666 302.05420275623334z" fill="rgba(127, 90, 240, 1)"></path><rect width="331.52" height="331.52" clip-path="url(&quot;#SvgjsClipPath6116&quot;)" x="113.61" y="-112.03" fill="url(#SvgjsPattern6117)" transform="rotate(268.61, 279.37, 53.73)"></rect><path d="M257.09 116.57L269.56 119.5 269.42 132.31 281.89 135.25 281.76 148.06 294.22 150.99 294.09 163.8" stroke="rgba(127, 90, 240, 1)" stroke-width="1" stroke-dasharray="3, 2"></path><rect width="96" height="96" clip-path="url(&quot;#SvgjsClipPath6118&quot;)" x="820.04" y="202.88" fill="url(#SvgjsPattern6119)" transform="rotate(48.97, 868.04, 250.88)"></rect><path d="M420.52 71.07L432.47 75.67 430.61 88.34 442.56 92.94 440.69 105.61 452.65 110.21 450.78 122.88M413.61 75.11L425.56 79.71 423.7 92.38 435.65 96.98 433.79 109.65 445.74 114.25 443.87 126.92M406.7 79.14L418.65 83.74 416.79 96.41 428.74 101.01 426.88 113.68 438.83 118.28 436.97 130.95" stroke="rgba(127, 90, 240, 1)" stroke-width="1.22" stroke-dasharray="3, 3"></path><path d="M822 263.55a5.6 5.6 0 1 0-4.28-10.35 5.6 5.6 0 1 0 4.28 10.35zM815.88 248.77a5.6 5.6 0 1 0-4.28-10.35 5.6 5.6 0 1 0 4.28 10.35zM809.76 233.99a5.6 5.6 0 1 0-4.29-10.35 5.6 5.6 0 1 0 4.29 10.35zM803.64 219.2a5.6 5.6 0 1 0-4.29-10.34 5.6 5.6 0 1 0 4.29 10.34z" fill="rgba(127, 90, 240, 1)"></path><rect width="72" height="72" clip-path="url(&quot;#SvgjsClipPath6120&quot;)" x="953.39" y="152.23" fill="url(#SvgjsPattern6121)" transform="rotate(118.6, 989.39, 188.23)"></rect><rect width="194.48000000000002" height="194.48000000000002" clip-path="url(&quot;#SvgjsClipPath6122&quot;)" x="197.57" y="302.93" fill="url(#SvgjsPattern6123)" transform="rotate(186.87, 294.81, 400.17)"></rect><rect width="289.28" height="289.28" clip-path="url(&quot;#SvgjsClipPath6124&quot;)" x="768.16" y="52.66" fill="url(#SvgjsPattern6125)" transform="rotate(244.05, 912.8, 197.3)"></rect></g><defs><mask id="SvgjsMask6115"><rect width="1000" height="500" fill="#ffffff"></rect></mask><pattern x="0" y="0" width="331.52" height="11.84" patternUnits="userSpaceOnUse" id="SvgjsPattern6117"><rect width="331.52" height="5.92" x="0" y="0" fill="rgba(127, 90, 240, 1)"></rect><rect width="331.52" height="5.92" x="0" y="5.92" fill="rgba(0, 0, 0, 0)"></rect></pattern><clipPath id="SvgjsClipPath6116"><circle r="82.88" cx="279.37" cy="53.73"></circle></clipPath><pattern x="0" y="0" width="6" height="6" patternUnits="userSpaceOnUse" id="SvgjsPattern6119"><path d="M0 6L3 0L6 6" stroke="rgba(127, 90, 240, 1)" fill="none"></path></pattern><clipPath id="SvgjsClipPath6118"><circle r="24" cx="868.04" cy="250.88"></circle></clipPath><pattern x="0" y="0" width="6" height="6" patternUnits="userSpaceOnUse" id="SvgjsPattern6121"><path d="M0 6L3 0L6 6" stroke="rgba(127, 90, 240, 1)" fill="none"></path></pattern><clipPath id="SvgjsClipPath6120"><circle r="18" cx="989.39" cy="188.23"></circle></clipPath><pattern x="0" y="0" width="7.48" height="7.48" patternUnits="userSpaceOnUse" id="SvgjsPattern6123"><path d="M0 7.48L3.74 0L7.48 7.48" stroke="rgba(127, 90, 240, 1)" fill="none"></path></pattern><clipPath id="SvgjsClipPath6122"><circle r="48.620000000000005" cx="294.81" cy="400.17"></circle></clipPath><pattern x="0" y="0" width="9.04" height="9.04" patternUnits="userSpaceOnUse" id="SvgjsPattern6125"><path d="M4.52 1L4.52 8.04M1 4.52L8.04 4.52" stroke="rgba(127, 90, 240, 1)" fill="none" stroke-width="1"></path></pattern><clipPath id="SvgjsClipPath6124"><circle r="72.32" cx="912.8" cy="197.3"></circle></clipPath></defs></svg>