<svg xmlns="http://www.w3.org/2000/svg" version="1.1" xmlns:xlink="http://www.w3.org/1999/xlink" xmlns:svgjs="http://svgjs.com/svgjs" width="1000" height="500" preserveAspectRatio="none" viewBox="0 0 1000 500"><g mask="url(&quot;#SvgjsMask6056&quot;)" fill="none"><rect width="91.2" height="91.2" clip-path="url(&quot;#SvgjsClipPath6057&quot;)" x="868.26" y="409.12" fill="url(#SvgjsPattern6058)" transform="rotate(271.73, 913.86, 454.72)"></rect><rect width="329" height="329" clip-path="url(&quot;#SvgjsClipPath6059&quot;)" x="739.66" y="127.41" fill="url(#SvgjsPattern6060)" transform="rotate(280.52, 904.16, 291.91)"></rect><path d="M515.24 5.59a5.6 5.6 0 1 0-11.02-2.03 5.6 5.6 0 1 0 11.02 2.03zM499.5 2.69a5.6 5.6 0 1 0-11.01-2.03 5.6 5.6 0 1 0 11.01 2.03zM483.77-0.21a5.6 5.6 0 1 0-11.02-2.03 5.6 5.6 0 1 0 11.02 2.03zM468.03-3.11a5.6 5.6 0 1 0-11.01-2.03 5.6 5.6 0 1 0 11.01 2.03zM549.61-4.35a5.6 5.6 0 1 0-11.02-2.03 5.6 5.6 0 1 0 11.02 2.03zM533.87-7.25a5.6 5.6 0 1 0-11.01-2.03 5.6 5.6 0 1 0 11.01 2.03zM518.14-10.15a5.6 5.6 0 1 0-11.02-2.03 5.6 5.6 0 1 0 11.02 2.03zM502.4-13.05a5.6 5.6 0 1 0-11.01-2.03 5.6 5.6 0 1 0 11.01 2.03z" fill="rgba(255, 139, 167, 1)"></path><rect width="246" height="246" clip-path="url(&quot;#SvgjsClipPath6061&quot;)" x="238.8" y="45.18" fill="url(#SvgjsPattern6062)" transform="rotate(137.31, 361.8, 168.18)"></rect><circle r="60.326275600766856" cx="706.87" cy="149.33" fill="rgba(255, 139, 167, 1)"></circle><path d="M942.05 211.67a5.6 5.6 0 1 0-4.79 10.12 5.6 5.6 0 1 0 4.79-10.12zM935.2 226.12a5.6 5.6 0 1 0-4.79 10.13 5.6 5.6 0 1 0 4.79-10.13zM928.35 240.58a5.6 5.6 0 1 0-4.79 10.13 5.6 5.6 0 1 0 4.79-10.13zM921.5 255.04a5.6 5.6 0 1 0-4.8 10.12 5.6 5.6 0 1 0 4.8-10.12zM941.29 175.9a5.6 5.6 0 1 0-4.79 10.12 5.6 5.6 0 1 0 4.79-10.12zM934.44 190.36a5.6 5.6 0 1 0-4.79 10.12 5.6 5.6 0 1 0 4.79-10.12zM927.59 204.82a5.6 5.6 0 1 0-4.79 10.12 5.6 5.6 0 1 0 4.79-10.12zM920.74 219.27a5.6 5.6 0 1 0-4.79 10.13 5.6 5.6 0 1 0 4.79-10.13z" stroke="rgba(255, 139, 167, 1)" stroke-width="1"></path><rect width="127.8" height="127.8" clip-path="url(&quot;#SvgjsClipPath6063&quot;)" x="916.96" y="173.48" fill="url(#SvgjsPattern6064)" transform="rotate(150.61, 980.86, 237.38)"></rect><rect width="60" height="60" clip-path="url(&quot;#SvgjsClipPath6065&quot;)" x="173.83" y="387.7" fill="url(#SvgjsPattern6066)" transform="rotate(348.01, 203.83, 417.7)"></rect><path d="M794.36 274.85 L787.51 177.32000000000002L737.0022173005816 280.0177826994184z" fill="rgba(255, 139, 167, 1)"></path></g><defs><mask id="SvgjsMask6056"><rect width="1000" height="500" fill="#ffffff"></rect></mask><pattern x="0" y="0" width="7.6" height="7.6" patternUnits="userSpaceOnUse" id="SvgjsPattern6058"><path d="M3.8 1L3.8 6.6M1 3.8L6.6 3.8" stroke="rgba(255, 139, 167, 1)" fill="none" stroke-width="1"></path></pattern><clipPath id="SvgjsClipPath6057"><circle r="22.8" cx="913.86" cy="454.72"></circle></clipPath><pattern x="0" y="0" width="6.58" height="6.58" patternUnits="userSpaceOnUse" id="SvgjsPattern6060"><path d="M3.29 1L3.29 5.58M1 3.29L5.58 3.29" stroke="rgba(255, 139, 167, 1)" fill="none" stroke-width="1"></path></pattern><clipPath id="SvgjsClipPath6059"><circle r="82.25" cx="904.16" cy="291.91"></circle></clipPath><pattern x="0" y="0" width="12.3" height="12.3" patternUnits="userSpaceOnUse" id="SvgjsPattern6062"><path d="M0 12.3L6.15 0L12.3 12.3" stroke="rgba(255, 139, 167, 1)" fill="none"></path></pattern><clipPath id="SvgjsClipPath6061"><circle r="61.5" cx="361.8" cy="168.18"></circle></clipPath><pattern x="0" y="0" width="12.78" height="12.78" patternUnits="userSpaceOnUse" id="SvgjsPattern6064"><path d="M0 12.78L6.39 0L12.78 12.78" stroke="rgba(255, 139, 167, 1)" fill="none"></path></pattern><clipPath id="SvgjsClipPath6063"><circle r="31.95" cx="980.86" cy="237.38"></circle></clipPath><pattern x="0" y="0" width="6" height="6" patternUnits="userSpaceOnUse" id="SvgjsPattern6066"><path d="M0 6L3 0L6 6" stroke="rgba(255, 139, 167, 1)" fill="none"></path></pattern><clipPath id="SvgjsClipPath6065"><circle r="15" cx="203.83" cy="417.7"></circle></clipPath></defs></svg>